<?xml version="1.0" encoding="UTF-8" standalone="no"?><!-- Generator: Gravit.io --><svg xmlns="http://www.w3.org/2000/svg" xmlns:xlink="http://www.w3.org/1999/xlink" style="isolation:isolate" viewBox="0 0 137 28" width="137pt" height="28pt"><defs><clipPath id="_clipPath_98Ka52t8t1JWuwPfmV6X5sKvTAYtLcXf"><rect width="137" height="28"/></clipPath></defs><g clip-path="url(#_clipPath_98Ka52t8t1JWuwPfmV6X5sKvTAYtLcXf)"><path d=" M 41.885 4.97 L 48.611 4.97 L 48.611 4.97 Q 52.125 4.97 54.094 6.337 L 54.094 6.337 L 54.094 6.337 Q 56.063 7.704 56.063 10.425 L 56.063 10.425 L 56.063 10.425 Q 56.063 11.806 55.331 12.893 L 55.331 12.893 L 55.331 12.893 Q 54.6 13.979 53.205 14.526 L 53.205 14.526 L 53.205 14.526 Q 54.996 14.909 55.892 16.167 L 55.892 16.167 L 55.892 16.167 Q 56.787 17.425 56.787 19.079 L 56.787 19.079 L 56.787 19.079 Q 56.787 21.937 54.9 23.406 L 54.9 23.406 L 54.9 23.406 Q 53.014 24.876 49.555 24.876 L 49.555 24.876 L 39.766 24.876 L 39.766 22.483 L 41.885 22.073 L 41.885 7.786 L 39.766 7.376 L 39.766 4.97 L 41.885 4.97 L 41.885 4.97 Z  M 49.855 16.071 L 45.877 16.071 L 45.877 21.813 L 49.555 21.813 L 49.555 21.813 Q 51.141 21.813 51.975 21.123 L 51.975 21.123 L 51.975 21.123 Q 52.809 20.433 52.809 19.079 L 52.809 19.079 L 52.809 19.079 Q 52.809 17.616 52.098 16.844 L 52.098 16.844 L 52.098 16.844 Q 51.387 16.071 49.855 16.071 L 49.855 16.071 L 49.855 16.071 Z  M 45.877 8.046 L 45.877 13.31 L 48.748 13.31 L 48.748 13.31 Q 50.348 13.31 51.209 12.653 L 51.209 12.653 L 51.209 12.653 Q 52.07 11.997 52.07 10.739 L 52.07 10.739 L 52.07 10.739 Q 52.07 9.358 51.202 8.702 L 51.202 8.702 L 51.202 8.702 Q 50.334 8.046 48.611 8.046 L 48.611 8.046 L 45.877 8.046 L 45.877 8.046 Z  M 64.156 4.97 L 66.289 4.97 L 66.289 7.376 L 64.156 7.786 L 64.156 18.177 L 64.156 18.177 Q 64.156 20.146 65.216 21.123 L 65.216 21.123 L 65.216 21.123 Q 66.275 22.101 68.121 22.101 L 68.121 22.101 L 68.121 22.101 Q 69.994 22.101 71.061 21.13 L 71.061 21.13 L 71.061 21.13 Q 72.127 20.159 72.127 18.177 L 72.127 18.177 L 72.127 7.786 L 70.008 7.376 L 70.008 4.97 L 78.252 4.97 L 78.252 7.376 L 76.119 7.786 L 76.119 18.177 L 76.119 18.177 Q 76.119 21.526 73.911 23.345 L 73.911 23.345 L 73.911 23.345 Q 71.703 25.163 68.121 25.163 L 68.121 25.163 L 68.121 25.163 Q 64.553 25.163 62.358 23.345 L 62.358 23.345 L 62.358 23.345 Q 60.164 21.526 60.164 18.177 L 60.164 18.177 L 60.164 7.786 L 58.045 7.376 L 58.045 4.97 L 60.164 4.97 L 64.156 4.97 L 64.156 4.97 Z  M 79.428 24.876 L 79.428 22.483 L 81.547 22.073 L 81.547 7.786 L 79.428 7.376 L 79.428 4.97 L 87.563 4.97 L 87.563 7.376 L 85.539 7.786 L 85.539 13.104 L 87.275 13.104 L 91.104 7.54 L 89.928 7.376 L 89.928 4.97 L 97.816 4.97 L 97.816 7.376 L 95.656 7.745 L 90.762 14.28 L 96.258 22.142 L 98.254 22.483 L 98.254 24.876 L 90.365 24.876 L 90.365 22.483 L 91.596 22.319 L 87.768 16.563 L 85.539 16.563 L 85.539 22.073 L 87.563 22.483 L 87.563 24.876 L 79.428 24.876 L 79.428 24.876 Z " fill-rule="evenodd" fill="rgb(254,254,254)"/><path d=" M 112.617 13.05 L 112.617 16.126 L 105.877 16.126 L 105.877 21.813 L 112.303 21.813 L 112.48 19.435 L 115.516 19.435 L 115.516 24.876 L 99.766 24.876 L 99.766 22.483 L 101.885 22.073 L 101.885 7.786 L 99.766 7.376 L 99.766 4.97 L 101.885 4.97 L 115.488 4.97 L 115.488 10.425 L 112.426 10.425 L 112.248 8.046 L 105.877 8.046 L 105.877 13.05 L 112.617 13.05 L 112.617 13.05 Z  M 130.5 13.05 L 130.5 16.126 L 123.76 16.126 L 123.76 21.813 L 130.186 21.813 L 130.363 19.435 L 133.398 19.435 L 133.398 24.876 L 117.648 24.876 L 117.648 22.483 L 119.768 22.073 L 119.768 7.786 L 117.648 7.376 L 117.648 4.97 L 119.768 4.97 L 133.371 4.97 L 133.371 10.425 L 130.309 10.425 L 130.131 8.046 L 123.76 8.046 L 123.76 13.05 L 130.5 13.05 L 130.5 13.05 Z " fill="rgb(101,228,150)"/><g><path d=" M 28 28 L 0 0 L 28 0 L 28 28 Z " fill-rule="evenodd" fill="rgb(101,228,150)"/><path d=" M 28 0 L 0 28 L 0 0 L 28 0 Z " fill-rule="evenodd" fill="rgb(68,68,79)"/></g></g></svg>